<?xml version="1.0" encoding="UTF-8" standalone="no"?>
<!DOCTYPE svg PUBLIC "-//W3C//DTD SVG 1.1//EN" "http://www.w3.org/Graphics/SVG/1.1/DTD/svg11.dtd">
<svg width="150px" height="380px" version="1.1" xmlns="http://www.w3.org/2000/svg" xmlns:xlink="http://www.w3.org/1999/xlink" xml:space="preserve" xmlns:serif="http://www.serif.com/" style="fill-rule:evenodd;clip-rule:evenodd;stroke-linecap:round;stroke-linejoin:round;stroke-miterlimit:1.5;">
    <rect x="0" y="0" width="150" height="380" style="fill:#212121;"/>
    <g id="Panel">
        <g>
            <path d="M27.249,100.006c-6.858,-4.241 -11.431,-11.831 -11.431,-20.48c0,-13.28 10.782,-24.062 24.063,-24.062c13.28,0 24.062,10.782 24.062,24.062c0,8.907 -4.85,16.691 -12.05,20.851l-11.648,-20.756l-12.996,20.385Z" style="fill:none;stroke:#ccc;stroke-width:0.95px;"/>
            <path d="M25.402,102.905c-7.814,-4.852 -13.021,-13.512 -13.021,-23.379c0,-15.177 12.322,-27.5 27.5,-27.5c15.178,0 27.5,12.323 27.5,27.5c0,10.194 -5.558,19.099 -13.806,23.849l-13.33,-23.754l-14.843,23.284Z" style="fill:none;stroke:#ccc;stroke-width:0.95px;"/>
            <path d="M17.614,88.616l-3.135,1.363" style="fill:none;stroke:#ccc;stroke-width:0.95px;"/>
            <path d="M62.176,88.63l3.094,1.26" style="fill:none;stroke:#ccc;stroke-width:0.95px;"/>
            <path d="M54.428,60.271l1.848,-2.523" style="fill:none;stroke:#ccc;stroke-width:0.95px;"/>
            <path d="M25.031,60.345l-1.663,-2.45" style="fill:none;stroke:#ccc;stroke-width:0.95px;"/>
            <path d="M16.496,73.501l-2.992,-1.011" style="fill:none;stroke:#ccc;stroke-width:0.95px;"/>
            <path d="M63.34,73.259l2.954,-1.065" style="fill:none;stroke:#ccc;stroke-width:0.95px;"/>
            <path d="M40.138,54.853l0,-2.647" style="fill:none;stroke:#ccc;stroke-width:0.95px;"/>
        </g>
        <g>
            <path d="M14.448,226.171c-3.741,-2.314 -6.235,-6.453 -6.235,-11.171c0,-7.244 5.881,-13.125 13.125,-13.125c7.244,0 13.125,5.881 13.125,13.125c0,4.858 -2.646,9.104 -6.573,11.373l-6.354,-11.322l-7.088,11.12Z" style="fill:none;stroke:#ccc;stroke-width:0.95px;"/>
            <path d="M13.44,227.752c-4.262,-2.647 -7.102,-7.37 -7.102,-12.752c0,-8.279 6.721,-15 15,-15c8.279,0 15,6.721 15,15c0,5.56 -3.032,10.417 -7.531,13.008l-7.271,-12.957l-8.096,12.701Z" style="fill:none;stroke:#ccc;stroke-width:0.95px;"/>
            <path d="M9.192,219.958l-1.71,0.743" style="fill:none;stroke:#ccc;stroke-width:0.95px;"/>
            <path d="M33.499,219.965l1.687,0.688" style="fill:none;stroke:#ccc;stroke-width:0.95px;"/>
            <path d="M29.272,204.497l1.009,-1.376" style="fill:none;stroke:#ccc;stroke-width:0.95px;"/>
            <path d="M13.238,204.537l-0.907,-1.336" style="fill:none;stroke:#ccc;stroke-width:0.95px;"/>
            <path d="M8.582,211.713l-1.631,-0.551" style="fill:none;stroke:#ccc;stroke-width:0.95px;"/>
            <path d="M34.134,211.581l1.611,-0.581" style="fill:none;stroke:#ccc;stroke-width:0.95px;"/>
            <path d="M21.478,201.542l0,-1.444" style="fill:none;stroke:#ccc;stroke-width:0.95px;"/>
        </g>
        <g>
            <path d="M49.448,226.171c-3.741,-2.314 -6.235,-6.453 -6.235,-11.171c0,-7.244 5.881,-13.125 13.125,-13.125c7.244,0 13.125,5.881 13.125,13.125c0,4.858 -2.646,9.104 -6.573,11.373l-6.354,-11.322l-7.088,11.12Z" style="fill:none;stroke:#ccc;stroke-width:0.95px;"/>
            <path d="M48.44,227.752c-4.262,-2.647 -7.102,-7.37 -7.102,-12.752c0,-8.279 6.721,-15 15,-15c8.279,0 15,6.721 15,15c0,5.56 -3.032,10.417 -7.531,13.008l-7.271,-12.957l-8.096,12.701Z" style="fill:none;stroke:#ccc;stroke-width:0.95px;"/>
            <path d="M44.192,219.958l-1.71,0.743" style="fill:none;stroke:#ccc;stroke-width:0.95px;"/>
            <path d="M68.499,219.965l1.687,0.688" style="fill:none;stroke:#ccc;stroke-width:0.95px;"/>
            <path d="M64.272,204.497l1.009,-1.376" style="fill:none;stroke:#ccc;stroke-width:0.95px;"/>
            <path d="M48.238,204.537l-0.907,-1.336" style="fill:none;stroke:#ccc;stroke-width:0.95px;"/>
            <path d="M43.582,211.713l-1.631,-0.551" style="fill:none;stroke:#ccc;stroke-width:0.95px;"/>
            <path d="M69.134,211.581l1.611,-0.581" style="fill:none;stroke:#ccc;stroke-width:0.95px;"/>
            <path d="M56.478,201.542l0,-1.444" style="fill:none;stroke:#ccc;stroke-width:0.95px;"/>
        </g>
        <g>
            <path d="M84.448,226.171c-3.741,-2.314 -6.235,-6.453 -6.235,-11.171c0,-7.244 5.881,-13.125 13.125,-13.125c7.244,0 13.125,5.881 13.125,13.125c0,4.858 -2.646,9.104 -6.573,11.373l-6.354,-11.322l-7.088,11.12Z" style="fill:none;stroke:#ccc;stroke-width:0.95px;"/>
            <path d="M83.44,227.752c-4.262,-2.647 -7.102,-7.37 -7.102,-12.752c0,-8.279 6.721,-15 15,-15c8.279,0 15,6.721 15,15c0,5.56 -3.032,10.417 -7.531,13.008l-7.271,-12.957l-8.096,12.701Z" style="fill:none;stroke:#ccc;stroke-width:0.95px;"/>
            <path d="M79.192,219.958l-1.71,0.743" style="fill:none;stroke:#ccc;stroke-width:0.95px;"/>
            <path d="M103.499,219.965l1.687,0.688" style="fill:none;stroke:#ccc;stroke-width:0.95px;"/>
            <path d="M99.272,204.497l1.009,-1.376" style="fill:none;stroke:#ccc;stroke-width:0.95px;"/>
            <path d="M83.238,204.537l-0.907,-1.336" style="fill:none;stroke:#ccc;stroke-width:0.95px;"/>
            <path d="M78.582,211.713l-1.631,-0.551" style="fill:none;stroke:#ccc;stroke-width:0.95px;"/>
            <path d="M104.134,211.581l1.611,-0.581" style="fill:none;stroke:#ccc;stroke-width:0.95px;"/>
            <path d="M91.478,201.542l0,-1.444" style="fill:none;stroke:#ccc;stroke-width:0.95px;"/>
        </g>
        <g>
            <path d="M119.448,226.171c-3.741,-2.314 -6.235,-6.453 -6.235,-11.171c0,-7.244 5.881,-13.125 13.125,-13.125c7.244,0 13.125,5.881 13.125,13.125c0,4.858 -2.646,9.104 -6.573,11.373l-6.354,-11.322l-7.088,11.12Z" style="fill:none;stroke:#ccc;stroke-width:0.95px;"/>
            <path d="M118.44,227.752c-4.262,-2.647 -7.102,-7.37 -7.102,-12.752c0,-8.279 6.721,-15 15,-15c8.279,0 15,6.721 15,15c0,5.56 -3.032,10.417 -7.531,13.008l-7.271,-12.957l-8.096,12.701Z" style="fill:none;stroke:#ccc;stroke-width:0.95px;"/>
            <path d="M114.192,219.958l-1.71,0.743" style="fill:none;stroke:#ccc;stroke-width:0.95px;"/>
            <path d="M138.499,219.965l1.687,0.688" style="fill:none;stroke:#ccc;stroke-width:0.95px;"/>
            <path d="M134.272,204.497l1.009,-1.376" style="fill:none;stroke:#ccc;stroke-width:0.95px;"/>
            <path d="M118.238,204.537l-0.907,-1.336" style="fill:none;stroke:#ccc;stroke-width:0.95px;"/>
            <path d="M113.582,211.713l-1.631,-0.551" style="fill:none;stroke:#ccc;stroke-width:0.95px;"/>
            <path d="M139.134,211.581l1.611,-0.581" style="fill:none;stroke:#ccc;stroke-width:0.95px;"/>
            <path d="M126.478,201.542l0,-1.444" style="fill:none;stroke:#ccc;stroke-width:0.95px;"/>
        </g>
        <g>
            <path d="M97.249,100.006c-6.858,-4.241 -11.431,-11.831 -11.431,-20.48c0,-13.28 10.782,-24.062 24.063,-24.062c13.28,0 24.062,10.782 24.062,24.062c0,8.907 -4.85,16.691 -12.05,20.851l-11.648,-20.756l-12.996,20.385Z" style="fill:none;stroke:#ccc;stroke-width:0.95px;"/>
            <path d="M95.402,102.905c-7.814,-4.852 -13.021,-13.512 -13.021,-23.379c0,-15.177 12.322,-27.5 27.5,-27.5c15.178,0 27.5,12.323 27.5,27.5c0,10.194 -5.558,19.099 -13.806,23.849l-13.33,-23.754l-14.843,23.284Z" style="fill:none;stroke:#ccc;stroke-width:0.95px;"/>
            <path d="M87.614,88.616l-3.135,1.363" style="fill:none;stroke:#ccc;stroke-width:0.95px;"/>
            <path d="M132.176,88.63l3.094,1.26" style="fill:none;stroke:#ccc;stroke-width:0.95px;"/>
            <path d="M124.428,60.271l1.848,-2.523" style="fill:none;stroke:#ccc;stroke-width:0.95px;"/>
            <path d="M95.031,60.345l-1.663,-2.45" style="fill:none;stroke:#ccc;stroke-width:0.95px;"/>
            <path d="M86.496,73.501l-2.992,-1.011" style="fill:none;stroke:#ccc;stroke-width:0.95px;"/>
            <path d="M133.34,73.259l2.954,-1.065" style="fill:none;stroke:#ccc;stroke-width:0.95px;"/>
            <path d="M110.138,54.853l0,-2.647" style="fill:none;stroke:#ccc;stroke-width:0.95px;"/>
        </g>
        <g>
            <path d="M27.249,171.006c-6.858,-4.241 -11.431,-11.831 -11.431,-20.48c0,-13.28 10.782,-24.062 24.063,-24.062c13.28,0 24.062,10.782 24.062,24.062c0,8.907 -4.85,16.691 -12.05,20.851l-11.648,-20.756l-12.996,20.385Z" style="fill:none;stroke:#ccc;stroke-width:0.95px;"/>
            <path d="M25.402,173.905c-7.814,-4.852 -13.021,-13.512 -13.021,-23.379c0,-15.177 12.322,-27.5 27.5,-27.5c15.178,0 27.5,12.323 27.5,27.5c0,10.194 -5.558,19.099 -13.806,23.849l-13.33,-23.754l-14.843,23.284Z" style="fill:none;stroke:#ccc;stroke-width:0.95px;"/>
            <path d="M17.614,159.616l-3.135,1.363" style="fill:none;stroke:#ccc;stroke-width:0.95px;"/>
            <path d="M62.176,159.63l3.094,1.26" style="fill:none;stroke:#ccc;stroke-width:0.95px;"/>
            <path d="M54.428,131.271l1.848,-2.523" style="fill:none;stroke:#ccc;stroke-width:0.95px;"/>
            <path d="M25.031,131.345l-1.663,-2.45" style="fill:none;stroke:#ccc;stroke-width:0.95px;"/>
            <path d="M16.496,144.501l-2.992,-1.011" style="fill:none;stroke:#ccc;stroke-width:0.95px;"/>
            <path d="M63.34,144.259l2.954,-1.065" style="fill:none;stroke:#ccc;stroke-width:0.95px;"/>
            <path d="M40.138,125.853l0,-2.647" style="fill:none;stroke:#ccc;stroke-width:0.95px;"/>
        </g>
        <g>
            <path d="M97.249,171.006c-6.858,-4.241 -11.431,-11.831 -11.431,-20.48c0,-13.28 10.782,-24.062 24.063,-24.062c13.28,0 24.062,10.782 24.062,24.062c0,8.907 -4.85,16.691 -12.05,20.851l-11.648,-20.756l-12.996,20.385Z" style="fill:none;stroke:#ccc;stroke-width:0.95px;"/>
            <path d="M95.402,173.905c-7.814,-4.852 -13.021,-13.512 -13.021,-23.379c0,-15.177 12.322,-27.5 27.5,-27.5c15.178,0 27.5,12.323 27.5,27.5c0,10.194 -5.558,19.099 -13.806,23.849l-13.33,-23.754l-14.843,23.284Z" style="fill:none;stroke:#ccc;stroke-width:0.95px;"/>
            <path d="M87.614,159.616l-3.135,1.363" style="fill:none;stroke:#ccc;stroke-width:0.95px;"/>
            <path d="M132.176,159.63l3.094,1.26" style="fill:none;stroke:#ccc;stroke-width:0.95px;"/>
            <path d="M124.428,131.271l1.848,-2.523" style="fill:none;stroke:#ccc;stroke-width:0.95px;"/>
            <path d="M95.031,131.345l-1.663,-2.45" style="fill:none;stroke:#ccc;stroke-width:0.95px;"/>
            <path d="M86.496,144.501l-2.992,-1.011" style="fill:none;stroke:#ccc;stroke-width:0.95px;"/>
            <path d="M133.34,144.259l2.954,-1.065" style="fill:none;stroke:#ccc;stroke-width:0.95px;"/>
            <path d="M110.138,125.853l0,-2.647" style="fill:none;stroke:#ccc;stroke-width:0.95px;"/>
        </g>
        <path d="M143,314.413c0,-2.988 -2.425,-5.413 -5.413,-5.413l-125.174,0c-2.988,0 -5.413,2.425 -5.413,5.413l0,26.174c0,2.988 2.425,5.413 5.413,5.413l125.174,0c2.988,0 5.413,-2.425 5.413,-5.413l0,-26.174Z" style="fill:#151515;stroke:#ccc;stroke-width:0.95px;"/>
        <rect x="15.128" y="297.576" width="1.504" height="5.696" style="fill:#fff;fill-rule:nonzero;"/>
        <path d="M21.336,297.576l1.416,0l0,5.696l-1.112,0l-2.584,-3.232l0,3.232l-1.4,0l0,-5.696l1.096,0l2.584,3.216l0,-3.216Z" style="fill:#fff;fill-rule:nonzero;"/>
        <path d="M26.728,302.08l1.232,0l0,1.192l-3.952,0l0,-1.192l1.224,0l0,-2.872l-1.144,0.656l0,-1.288l1.76,-1l0.88,0l0,4.504Z" style="fill:#fff;fill-rule:nonzero;"/>
        <path d="M14.728,229.576l1.168,0l0,5.696l-1.312,0l-0.008,-2.608l-1.08,2.608l-0.952,0l-1.088,-2.576l0,2.576l-1.304,0l0,-5.696l1.176,0l1.704,3.888l1.696,-3.888Z" style="fill:#fff;fill-rule:nonzero;"/>
        <path d="M19.656,235.344c-0.581,0 -1.088,-0.119 -1.52,-0.356c-0.432,-0.237 -0.764,-0.577 -0.996,-1.02c-0.232,-0.443 -0.348,-0.96 -0.348,-1.552c0,-0.592 0.117,-1.107 0.352,-1.544c0.235,-0.437 0.567,-0.775 0.996,-1.012c0.429,-0.237 0.935,-0.356 1.516,-0.356c0.581,0 1.087,0.119 1.516,0.356c0.429,0.237 0.759,0.575 0.988,1.012c0.229,0.437 0.344,0.952 0.344,1.544c0,0.592 -0.115,1.109 -0.344,1.552c-0.229,0.443 -0.559,0.783 -0.988,1.02c-0.429,0.237 -0.935,0.356 -1.516,0.356Zm0,-1.144c0.427,0 0.761,-0.152 1.004,-0.456c0.243,-0.304 0.364,-0.747 0.364,-1.328c0,-0.576 -0.121,-1.015 -0.364,-1.316c-0.243,-0.301 -0.577,-0.452 -1.004,-0.452c-0.427,0 -0.76,0.149 -1,0.448c-0.24,0.299 -0.36,0.739 -0.36,1.32c0,0.587 0.12,1.031 0.36,1.332c0.24,0.301 0.573,0.452 1,0.452Z" style="fill:#fff;fill-rule:nonzero;"/>
        <path d="M23.384,229.576l2.328,0c0.629,0 1.172,0.113 1.628,0.34c0.456,0.227 0.805,0.553 1.048,0.98c0.243,0.427 0.364,0.933 0.364,1.52c0,0.592 -0.12,1.103 -0.36,1.532c-0.24,0.429 -0.588,0.757 -1.044,0.984c-0.456,0.227 -1.001,0.34 -1.636,0.34l-2.328,0l0,-5.696Zm2.224,4.496c0.555,0 0.969,-0.137 1.244,-0.412c0.275,-0.275 0.412,-0.689 0.412,-1.244c0,-1.093 -0.552,-1.64 -1.656,-1.64l-0.72,0l0,3.296l0.72,0Z" style="fill:#fff;fill-rule:nonzero;"/>
        <path d="M32.576,234.08l1.232,0l0,1.192l-3.952,0l0,-1.192l1.224,0l0,-2.872l-1.144,0.656l0,-1.288l1.76,-1l0.88,0l0,4.504Z" style="fill:#fff;fill-rule:nonzero;"/>
        <path d="M28.216,112.272l-2.23,0l-2.85,-3.23l0,3.23l-1.88,0l0,-7.12l1.88,0l0,3.06l2.77,-3.06l2.2,0l-3.15,3.38l3.26,3.74Z" style="fill:#fff;fill-rule:nonzero;"/>
        <path d="M32.916,105.152l1.77,0l0,7.12l-1.39,0l-3.23,-4.04l0,4.04l-1.75,0l0,-7.12l1.37,0l3.23,4.02l0,-4.02Z" style="fill:#fff;fill-rule:nonzero;"/>
        <path d="M39.366,112.362c-0.727,0 -1.36,-0.148 -1.9,-0.445c-0.54,-0.297 -0.955,-0.722 -1.245,-1.275c-0.29,-0.553 -0.435,-1.2 -0.435,-1.94c0,-0.74 0.147,-1.383 0.44,-1.93c0.293,-0.547 0.708,-0.968 1.245,-1.265c0.537,-0.297 1.168,-0.445 1.895,-0.445c0.727,0 1.358,0.148 1.895,0.445c0.537,0.297 0.948,0.718 1.235,1.265c0.287,0.547 0.43,1.19 0.43,1.93c0,0.74 -0.143,1.387 -0.43,1.94c-0.287,0.553 -0.698,0.978 -1.235,1.275c-0.537,0.297 -1.168,0.445 -1.895,0.445Zm0,-1.43c0.533,0 0.952,-0.19 1.255,-0.57c0.303,-0.38 0.455,-0.933 0.455,-1.66c0,-0.72 -0.152,-1.268 -0.455,-1.645c-0.303,-0.377 -0.722,-0.565 -1.255,-0.565c-0.533,0 -0.95,0.187 -1.25,0.56c-0.3,0.373 -0.45,0.923 -0.45,1.65c0,0.733 0.15,1.288 0.45,1.665c0.3,0.377 0.717,0.565 1.25,0.565Z" style="fill:#fff;fill-rule:nonzero;"/>
        <path d="M48.816,108.582c0.42,0.12 0.743,0.332 0.97,0.635c0.227,0.303 0.34,0.672 0.34,1.105c0,0.393 -0.103,0.737 -0.31,1.03c-0.207,0.293 -0.502,0.52 -0.885,0.68c-0.383,0.16 -0.835,0.24 -1.355,0.24l-3.55,0l0,-7.12l3.46,0c0.747,0 1.34,0.167 1.78,0.5c0.44,0.333 0.66,0.783 0.66,1.35c0,0.367 -0.097,0.69 -0.29,0.97c-0.193,0.28 -0.467,0.483 -0.82,0.61Zm-2.96,-0.64l1.31,0c0.347,0 0.6,-0.053 0.76,-0.16c0.16,-0.107 0.24,-0.277 0.24,-0.51c0,-0.24 -0.082,-0.417 -0.245,-0.53c-0.163,-0.113 -0.415,-0.17 -0.755,-0.17l-1.31,0l0,1.37Zm1.5,2.91c0.36,0 0.618,-0.057 0.775,-0.17c0.157,-0.113 0.235,-0.303 0.235,-0.57c0,-0.273 -0.077,-0.467 -0.23,-0.58c-0.153,-0.113 -0.413,-0.17 -0.78,-0.17l-1.5,0l0,1.49l1.5,0Z" style="fill:#fff;fill-rule:nonzero;"/>
        <path d="M54.726,110.782l1.54,0l0,1.49l-4.94,0l0,-1.49l1.53,0l0,-3.59l-1.43,0.82l0,-1.61l2.2,-1.25l1.1,0l0,5.63Z" style="fill:#fff;fill-rule:nonzero;"/>
        <path d="M97.216,112.272l-2.23,0l-2.85,-3.23l0,3.23l-1.88,0l0,-7.12l1.88,0l0,3.06l2.77,-3.06l2.2,0l-3.15,3.38l3.26,3.74Z" style="fill:#fff;fill-rule:nonzero;"/>
        <path d="M101.916,105.152l1.77,0l0,7.12l-1.39,0l-3.23,-4.04l0,4.04l-1.75,0l0,-7.12l1.37,0l3.23,4.02l0,-4.02Z" style="fill:#fff;fill-rule:nonzero;"/>
        <path d="M108.366,112.362c-0.727,0 -1.36,-0.148 -1.9,-0.445c-0.54,-0.297 -0.955,-0.722 -1.245,-1.275c-0.29,-0.553 -0.435,-1.2 -0.435,-1.94c0,-0.74 0.147,-1.383 0.44,-1.93c0.293,-0.547 0.708,-0.968 1.245,-1.265c0.537,-0.297 1.168,-0.445 1.895,-0.445c0.727,0 1.358,0.148 1.895,0.445c0.537,0.297 0.948,0.718 1.235,1.265c0.287,0.547 0.43,1.19 0.43,1.93c0,0.74 -0.143,1.387 -0.43,1.94c-0.287,0.553 -0.698,0.978 -1.235,1.275c-0.537,0.297 -1.168,0.445 -1.895,0.445Zm0,-1.43c0.533,0 0.952,-0.19 1.255,-0.57c0.303,-0.38 0.455,-0.933 0.455,-1.66c0,-0.72 -0.152,-1.268 -0.455,-1.645c-0.303,-0.377 -0.722,-0.565 -1.255,-0.565c-0.533,0 -0.95,0.187 -1.25,0.56c-0.3,0.373 -0.45,0.923 -0.45,1.65c0,0.733 0.15,1.288 0.45,1.665c0.3,0.377 0.717,0.565 1.25,0.565Z" style="fill:#fff;fill-rule:nonzero;"/>
        <path d="M117.816,108.582c0.42,0.12 0.743,0.332 0.97,0.635c0.227,0.303 0.34,0.672 0.34,1.105c0,0.393 -0.103,0.737 -0.31,1.03c-0.207,0.293 -0.502,0.52 -0.885,0.68c-0.383,0.16 -0.835,0.24 -1.355,0.24l-3.55,0l0,-7.12l3.46,0c0.747,0 1.34,0.167 1.78,0.5c0.44,0.333 0.66,0.783 0.66,1.35c0,0.367 -0.097,0.69 -0.29,0.97c-0.193,0.28 -0.467,0.483 -0.82,0.61Zm-2.96,-0.64l1.31,0c0.347,0 0.6,-0.053 0.76,-0.16c0.16,-0.107 0.24,-0.277 0.24,-0.51c0,-0.24 -0.082,-0.417 -0.245,-0.53c-0.163,-0.113 -0.415,-0.17 -0.755,-0.17l-1.31,0l0,1.37Zm1.5,2.91c0.36,0 0.618,-0.057 0.775,-0.17c0.157,-0.113 0.235,-0.303 0.235,-0.57c0,-0.273 -0.077,-0.467 -0.23,-0.58c-0.153,-0.113 -0.413,-0.17 -0.78,-0.17l-1.5,0l0,1.49l1.5,0Z" style="fill:#fff;fill-rule:nonzero;"/>
        <path d="M124.996,110.782l0,1.49l-5.02,0l0,-1.38l2.32,-2.42c0.433,-0.453 0.65,-0.877 0.65,-1.27c0,-0.46 -0.273,-0.69 -0.82,-0.69c-0.28,0 -0.575,0.055 -0.885,0.165c-0.31,0.11 -0.622,0.268 -0.935,0.475l-0.59,-1.33c0.287,-0.233 0.658,-0.418 1.115,-0.555c0.457,-0.137 0.922,-0.205 1.395,-0.205c0.513,0 0.962,0.082 1.345,0.245c0.383,0.163 0.68,0.397 0.89,0.7c0.21,0.303 0.315,0.658 0.315,1.065c0,0.413 -0.082,0.788 -0.245,1.125c-0.163,0.337 -0.442,0.715 -0.835,1.135l-1.42,1.45l2.72,0Z" style="fill:#fff;fill-rule:nonzero;"/>
        <path d="M28.216,182.272l-2.23,0l-2.85,-3.23l0,3.23l-1.88,0l0,-7.12l1.88,0l0,3.06l2.77,-3.06l2.2,0l-3.15,3.38l3.26,3.74Z" style="fill:#fff;fill-rule:nonzero;"/>
        <path d="M32.916,175.152l1.77,0l0,7.12l-1.39,0l-3.23,-4.04l0,4.04l-1.75,0l0,-7.12l1.37,0l3.23,4.02l0,-4.02Z" style="fill:#fff;fill-rule:nonzero;"/>
        <path d="M39.366,182.362c-0.727,0 -1.36,-0.148 -1.9,-0.445c-0.54,-0.297 -0.955,-0.722 -1.245,-1.275c-0.29,-0.553 -0.435,-1.2 -0.435,-1.94c0,-0.74 0.147,-1.383 0.44,-1.93c0.293,-0.547 0.708,-0.968 1.245,-1.265c0.537,-0.297 1.168,-0.445 1.895,-0.445c0.727,0 1.358,0.148 1.895,0.445c0.537,0.297 0.948,0.718 1.235,1.265c0.287,0.547 0.43,1.19 0.43,1.93c0,0.74 -0.143,1.387 -0.43,1.94c-0.287,0.553 -0.698,0.978 -1.235,1.275c-0.537,0.297 -1.168,0.445 -1.895,0.445Zm0,-1.43c0.533,0 0.952,-0.19 1.255,-0.57c0.303,-0.38 0.455,-0.933 0.455,-1.66c0,-0.72 -0.152,-1.268 -0.455,-1.645c-0.303,-0.377 -0.722,-0.565 -1.255,-0.565c-0.533,0 -0.95,0.187 -1.25,0.56c-0.3,0.373 -0.45,0.923 -0.45,1.65c0,0.733 0.15,1.288 0.45,1.665c0.3,0.377 0.717,0.565 1.25,0.565Z" style="fill:#fff;fill-rule:nonzero;"/>
        <path d="M48.816,178.582c0.42,0.12 0.743,0.332 0.97,0.635c0.227,0.303 0.34,0.672 0.34,1.105c0,0.393 -0.103,0.737 -0.31,1.03c-0.207,0.293 -0.502,0.52 -0.885,0.68c-0.383,0.16 -0.835,0.24 -1.355,0.24l-3.55,0l0,-7.12l3.46,0c0.747,0 1.34,0.167 1.78,0.5c0.44,0.333 0.66,0.783 0.66,1.35c0,0.367 -0.097,0.69 -0.29,0.97c-0.193,0.28 -0.467,0.483 -0.82,0.61Zm-2.96,-0.64l1.31,0c0.347,0 0.6,-0.053 0.76,-0.16c0.16,-0.107 0.24,-0.277 0.24,-0.51c0,-0.24 -0.082,-0.417 -0.245,-0.53c-0.163,-0.113 -0.415,-0.17 -0.755,-0.17l-1.31,0l0,1.37Zm1.5,2.91c0.36,0 0.618,-0.057 0.775,-0.17c0.157,-0.113 0.235,-0.303 0.235,-0.57c0,-0.273 -0.077,-0.467 -0.23,-0.58c-0.153,-0.113 -0.413,-0.17 -0.78,-0.17l-1.5,0l0,1.49l1.5,0Z" style="fill:#fff;fill-rule:nonzero;"/>
        <path d="M54.676,178.602c0.413,0.12 0.732,0.33 0.955,0.63c0.223,0.3 0.335,0.667 0.335,1.1c0,0.413 -0.112,0.772 -0.335,1.075c-0.223,0.303 -0.545,0.537 -0.965,0.7c-0.42,0.163 -0.91,0.245 -1.47,0.245c-0.5,0 -0.985,-0.068 -1.455,-0.205c-0.47,-0.137 -0.845,-0.322 -1.125,-0.555l0.59,-1.33c0.62,0.427 1.253,0.64 1.9,0.64c0.4,0 0.683,-0.058 0.85,-0.175c0.167,-0.117 0.25,-0.315 0.25,-0.595c0,-0.267 -0.082,-0.457 -0.245,-0.57c-0.163,-0.113 -0.435,-0.17 -0.815,-0.17l-1.11,0l0,-1.44l0.92,0c0.373,0 0.642,-0.052 0.805,-0.155c0.163,-0.103 0.245,-0.272 0.245,-0.505c0,-0.253 -0.078,-0.447 -0.235,-0.58c-0.157,-0.133 -0.375,-0.2 -0.655,-0.2c-0.287,0 -0.588,0.055 -0.905,0.165c-0.317,0.11 -0.618,0.268 -0.905,0.475l-0.59,-1.33c0.287,-0.227 0.662,-0.41 1.125,-0.55c0.463,-0.14 0.932,-0.21 1.405,-0.21c0.507,0 0.95,0.08 1.33,0.24c0.38,0.16 0.675,0.388 0.885,0.685c0.21,0.297 0.315,0.642 0.315,1.035c0.007,0.373 -0.087,0.697 -0.28,0.97c-0.193,0.273 -0.467,0.477 -0.82,0.61Z" style="fill:#fff;fill-rule:nonzero;"/>
        <path d="M97.216,182.272l-2.23,0l-2.85,-3.23l0,3.23l-1.88,0l0,-7.12l1.88,0l0,3.06l2.77,-3.06l2.2,0l-3.15,3.38l3.26,3.74Z" style="fill:#fff;fill-rule:nonzero;"/>
        <path d="M101.916,175.152l1.77,0l0,7.12l-1.39,0l-3.23,-4.04l0,4.04l-1.75,0l0,-7.12l1.37,0l3.23,4.02l0,-4.02Z" style="fill:#fff;fill-rule:nonzero;"/>
        <path d="M108.366,182.362c-0.727,0 -1.36,-0.148 -1.9,-0.445c-0.54,-0.297 -0.955,-0.722 -1.245,-1.275c-0.29,-0.553 -0.435,-1.2 -0.435,-1.94c0,-0.74 0.147,-1.383 0.44,-1.93c0.293,-0.547 0.708,-0.968 1.245,-1.265c0.537,-0.297 1.168,-0.445 1.895,-0.445c0.727,0 1.358,0.148 1.895,0.445c0.537,0.297 0.948,0.718 1.235,1.265c0.287,0.547 0.43,1.19 0.43,1.93c0,0.74 -0.143,1.387 -0.43,1.94c-0.287,0.553 -0.698,0.978 -1.235,1.275c-0.537,0.297 -1.168,0.445 -1.895,0.445Zm0,-1.43c0.533,0 0.952,-0.19 1.255,-0.57c0.303,-0.38 0.455,-0.933 0.455,-1.66c0,-0.72 -0.152,-1.268 -0.455,-1.645c-0.303,-0.377 -0.722,-0.565 -1.255,-0.565c-0.533,0 -0.95,0.187 -1.25,0.56c-0.3,0.373 -0.45,0.923 -0.45,1.65c0,0.733 0.15,1.288 0.45,1.665c0.3,0.377 0.717,0.565 1.25,0.565Z" style="fill:#fff;fill-rule:nonzero;"/>
        <path d="M117.816,178.582c0.42,0.12 0.743,0.332 0.97,0.635c0.227,0.303 0.34,0.672 0.34,1.105c0,0.393 -0.103,0.737 -0.31,1.03c-0.207,0.293 -0.502,0.52 -0.885,0.68c-0.383,0.16 -0.835,0.24 -1.355,0.24l-3.55,0l0,-7.12l3.46,0c0.747,0 1.34,0.167 1.78,0.5c0.44,0.333 0.66,0.783 0.66,1.35c0,0.367 -0.097,0.69 -0.29,0.97c-0.193,0.28 -0.467,0.483 -0.82,0.61Zm-2.96,-0.64l1.31,0c0.347,0 0.6,-0.053 0.76,-0.16c0.16,-0.107 0.24,-0.277 0.24,-0.51c0,-0.24 -0.082,-0.417 -0.245,-0.53c-0.163,-0.113 -0.415,-0.17 -0.755,-0.17l-1.31,0l0,1.37Zm1.5,2.91c0.36,0 0.618,-0.057 0.775,-0.17c0.157,-0.113 0.235,-0.303 0.235,-0.57c0,-0.273 -0.077,-0.467 -0.23,-0.58c-0.153,-0.113 -0.413,-0.17 -0.78,-0.17l-1.5,0l0,1.49l1.5,0Z" style="fill:#fff;fill-rule:nonzero;"/>
        <path d="M125.286,179.642l0,1.43l-0.92,0l0,1.2l-1.84,0l0,-1.2l-2.85,0l0,-1.38l3.19,-4.54l1.5,0l0,4.49l0.92,0Zm-3.93,0l1.17,0l0,-1.68l-1.17,1.68Z" style="fill:#fff;fill-rule:nonzero;"/>
        <path d="M49.728,229.576l1.168,0l0,5.696l-1.312,0l-0.008,-2.608l-1.08,2.608l-0.952,0l-1.088,-2.576l0,2.576l-1.304,0l0,-5.696l1.176,0l1.704,3.888l1.696,-3.888Z" style="fill:#fff;fill-rule:nonzero;"/>
        <path d="M54.656,235.344c-0.581,0 -1.088,-0.119 -1.52,-0.356c-0.432,-0.237 -0.764,-0.577 -0.996,-1.02c-0.232,-0.443 -0.348,-0.96 -0.348,-1.552c0,-0.592 0.117,-1.107 0.352,-1.544c0.235,-0.437 0.567,-0.775 0.996,-1.012c0.429,-0.237 0.935,-0.356 1.516,-0.356c0.581,0 1.087,0.119 1.516,0.356c0.429,0.237 0.759,0.575 0.988,1.012c0.229,0.437 0.344,0.952 0.344,1.544c0,0.592 -0.115,1.109 -0.344,1.552c-0.229,0.443 -0.559,0.783 -0.988,1.02c-0.429,0.237 -0.935,0.356 -1.516,0.356Zm0,-1.144c0.427,0 0.761,-0.152 1.004,-0.456c0.243,-0.304 0.364,-0.747 0.364,-1.328c0,-0.576 -0.121,-1.015 -0.364,-1.316c-0.243,-0.301 -0.577,-0.452 -1.004,-0.452c-0.427,0 -0.76,0.149 -1,0.448c-0.24,0.299 -0.36,0.739 -0.36,1.32c0,0.587 0.12,1.031 0.36,1.332c0.24,0.301 0.573,0.452 1,0.452Z" style="fill:#fff;fill-rule:nonzero;"/>
        <path d="M58.384,229.576l2.328,0c0.629,0 1.172,0.113 1.628,0.34c0.456,0.227 0.805,0.553 1.048,0.98c0.243,0.427 0.364,0.933 0.364,1.52c0,0.592 -0.12,1.103 -0.36,1.532c-0.24,0.429 -0.588,0.757 -1.044,0.984c-0.456,0.227 -1.001,0.34 -1.636,0.34l-2.328,0l0,-5.696Zm2.224,4.496c0.555,0 0.969,-0.137 1.244,-0.412c0.275,-0.275 0.412,-0.689 0.412,-1.244c0,-1.093 -0.552,-1.64 -1.656,-1.64l-0.72,0l0,3.296l0.72,0Z" style="fill:#fff;fill-rule:nonzero;"/>
        <path d="M68.592,234.08l0,1.192l-4.016,0l0,-1.104l1.856,-1.936c0.347,-0.363 0.52,-0.701 0.52,-1.016c0,-0.368 -0.219,-0.552 -0.656,-0.552c-0.224,0 -0.46,0.044 -0.708,0.132c-0.248,0.088 -0.497,0.215 -0.748,0.38l-0.472,-1.064c0.229,-0.187 0.527,-0.335 0.892,-0.444c0.365,-0.109 0.737,-0.164 1.116,-0.164c0.411,0 0.769,0.065 1.076,0.196c0.307,0.131 0.544,0.317 0.712,0.56c0.168,0.243 0.252,0.527 0.252,0.852c0,0.331 -0.065,0.631 -0.196,0.9c-0.131,0.269 -0.353,0.572 -0.668,0.908l-1.136,1.16l2.176,0Z" style="fill:#fff;fill-rule:nonzero;"/>
        <path d="M84.728,229.576l1.168,0l0,5.696l-1.312,0l-0.008,-2.608l-1.08,2.608l-0.952,0l-1.088,-2.576l0,2.576l-1.304,0l0,-5.696l1.176,0l1.704,3.888l1.696,-3.888Z" style="fill:#fff;fill-rule:nonzero;"/>
        <path d="M89.656,235.344c-0.581,0 -1.088,-0.119 -1.52,-0.356c-0.432,-0.237 -0.764,-0.577 -0.996,-1.02c-0.232,-0.443 -0.348,-0.96 -0.348,-1.552c0,-0.592 0.117,-1.107 0.352,-1.544c0.235,-0.437 0.567,-0.775 0.996,-1.012c0.429,-0.237 0.935,-0.356 1.516,-0.356c0.581,0 1.087,0.119 1.516,0.356c0.429,0.237 0.759,0.575 0.988,1.012c0.229,0.437 0.344,0.952 0.344,1.544c0,0.592 -0.115,1.109 -0.344,1.552c-0.229,0.443 -0.559,0.783 -0.988,1.02c-0.429,0.237 -0.935,0.356 -1.516,0.356Zm0,-1.144c0.427,0 0.761,-0.152 1.004,-0.456c0.243,-0.304 0.364,-0.747 0.364,-1.328c0,-0.576 -0.121,-1.015 -0.364,-1.316c-0.243,-0.301 -0.577,-0.452 -1.004,-0.452c-0.427,0 -0.76,0.149 -1,0.448c-0.24,0.299 -0.36,0.739 -0.36,1.32c0,0.587 0.12,1.031 0.36,1.332c0.24,0.301 0.573,0.452 1,0.452Z" style="fill:#fff;fill-rule:nonzero;"/>
        <path d="M93.384,229.576l2.328,0c0.629,0 1.172,0.113 1.628,0.34c0.456,0.227 0.805,0.553 1.048,0.98c0.243,0.427 0.364,0.933 0.364,1.52c0,0.592 -0.12,1.103 -0.36,1.532c-0.24,0.429 -0.588,0.757 -1.044,0.984c-0.456,0.227 -1.001,0.34 -1.636,0.34l-2.328,0l0,-5.696Zm2.224,4.496c0.555,0 0.969,-0.137 1.244,-0.412c0.275,-0.275 0.412,-0.689 0.412,-1.244c0,-1.093 -0.552,-1.64 -1.656,-1.64l-0.72,0l0,3.296l0.72,0Z" style="fill:#fff;fill-rule:nonzero;"/>
        <path d="M102.536,232.336c0.331,0.096 0.585,0.264 0.764,0.504c0.179,0.24 0.268,0.533 0.268,0.88c0,0.331 -0.089,0.617 -0.268,0.86c-0.179,0.243 -0.436,0.429 -0.772,0.56c-0.336,0.131 -0.728,0.196 -1.176,0.196c-0.4,0 -0.788,-0.055 -1.164,-0.164c-0.376,-0.109 -0.676,-0.257 -0.9,-0.444l0.472,-1.064c0.496,0.341 1.003,0.512 1.52,0.512c0.32,0 0.547,-0.047 0.68,-0.14c0.133,-0.093 0.2,-0.252 0.2,-0.476c0,-0.213 -0.065,-0.365 -0.196,-0.456c-0.131,-0.091 -0.348,-0.136 -0.652,-0.136l-0.888,0l0,-1.152l0.736,0c0.299,0 0.513,-0.041 0.644,-0.124c0.131,-0.083 0.196,-0.217 0.196,-0.404c0,-0.203 -0.063,-0.357 -0.188,-0.464c-0.125,-0.107 -0.3,-0.16 -0.524,-0.16c-0.229,0 -0.471,0.044 -0.724,0.132c-0.253,0.088 -0.495,0.215 -0.724,0.38l-0.472,-1.064c0.229,-0.181 0.529,-0.328 0.9,-0.44c0.371,-0.112 0.745,-0.168 1.124,-0.168c0.405,0 0.76,0.064 1.064,0.192c0.304,0.128 0.54,0.311 0.708,0.548c0.168,0.237 0.252,0.513 0.252,0.828c0.005,0.299 -0.069,0.557 -0.224,0.776c-0.155,0.219 -0.373,0.381 -0.656,0.488Z" style="fill:#fff;fill-rule:nonzero;"/>
        <path d="M119.728,229.576l1.168,0l0,5.696l-1.312,0l-0.008,-2.608l-1.08,2.608l-0.952,0l-1.088,-2.576l0,2.576l-1.304,0l0,-5.696l1.176,0l1.704,3.888l1.696,-3.888Z" style="fill:#fff;fill-rule:nonzero;"/>
        <path d="M124.656,235.344c-0.581,0 -1.088,-0.119 -1.52,-0.356c-0.432,-0.237 -0.764,-0.577 -0.996,-1.02c-0.232,-0.443 -0.348,-0.96 -0.348,-1.552c0,-0.592 0.117,-1.107 0.352,-1.544c0.235,-0.437 0.567,-0.775 0.996,-1.012c0.429,-0.237 0.935,-0.356 1.516,-0.356c0.581,0 1.087,0.119 1.516,0.356c0.429,0.237 0.759,0.575 0.988,1.012c0.229,0.437 0.344,0.952 0.344,1.544c0,0.592 -0.115,1.109 -0.344,1.552c-0.229,0.443 -0.559,0.783 -0.988,1.02c-0.429,0.237 -0.935,0.356 -1.516,0.356Zm0,-1.144c0.427,0 0.761,-0.152 1.004,-0.456c0.243,-0.304 0.364,-0.747 0.364,-1.328c0,-0.576 -0.121,-1.015 -0.364,-1.316c-0.243,-0.301 -0.577,-0.452 -1.004,-0.452c-0.427,0 -0.76,0.149 -1,0.448c-0.24,0.299 -0.36,0.739 -0.36,1.32c0,0.587 0.12,1.031 0.36,1.332c0.24,0.301 0.573,0.452 1,0.452Z" style="fill:#fff;fill-rule:nonzero;"/>
        <path d="M128.384,229.576l2.328,0c0.629,0 1.172,0.113 1.628,0.34c0.456,0.227 0.805,0.553 1.048,0.98c0.243,0.427 0.364,0.933 0.364,1.52c0,0.592 -0.12,1.103 -0.36,1.532c-0.24,0.429 -0.588,0.757 -1.044,0.984c-0.456,0.227 -1.001,0.34 -1.636,0.34l-2.328,0l0,-5.696Zm2.224,4.496c0.555,0 0.969,-0.137 1.244,-0.412c0.275,-0.275 0.412,-0.689 0.412,-1.244c0,-1.093 -0.552,-1.64 -1.656,-1.64l-0.72,0l0,3.296l0.72,0Z" style="fill:#fff;fill-rule:nonzero;"/>
        <path d="M138.824,233.168l0,1.144l-0.736,0l0,0.96l-1.472,0l0,-0.96l-2.28,0l0,-1.104l2.552,-3.632l1.2,0l0,3.592l0.736,0Zm-3.144,0l0.936,0l0,-1.344l-0.936,1.344Z" style="fill:#fff;fill-rule:nonzero;"/>
        <path d="M13.84,343.344c-0.581,0 -1.088,-0.119 -1.52,-0.356c-0.432,-0.237 -0.764,-0.577 -0.996,-1.02c-0.232,-0.443 -0.348,-0.96 -0.348,-1.552c0,-0.592 0.117,-1.107 0.352,-1.544c0.235,-0.437 0.567,-0.775 0.996,-1.012c0.429,-0.237 0.935,-0.356 1.516,-0.356c0.581,0 1.087,0.119 1.516,0.356c0.429,0.237 0.759,0.575 0.988,1.012c0.229,0.437 0.344,0.952 0.344,1.544c0,0.592 -0.115,1.109 -0.344,1.552c-0.229,0.443 -0.559,0.783 -0.988,1.02c-0.429,0.237 -0.935,0.356 -1.516,0.356Zm0,-1.144c0.427,0 0.761,-0.152 1.004,-0.456c0.243,-0.304 0.364,-0.747 0.364,-1.328c0,-0.576 -0.121,-1.015 -0.364,-1.316c-0.243,-0.301 -0.577,-0.452 -1.004,-0.452c-0.427,0 -0.76,0.149 -1,0.448c-0.24,0.299 -0.36,0.739 -0.36,1.32c0,0.587 0.12,1.031 0.36,1.332c0.24,0.301 0.573,0.452 1,0.452Z" style="fill:#fff;fill-rule:nonzero;"/>
        <path d="M20.072,343.344c-0.832,0 -1.461,-0.209 -1.888,-0.628c-0.427,-0.419 -0.64,-1.033 -0.64,-1.844l0,-3.296l1.464,0l0,3.352c0,0.411 0.092,0.725 0.276,0.944c0.184,0.219 0.447,0.328 0.788,0.328c0.336,0 0.595,-0.111 0.776,-0.332c0.181,-0.221 0.272,-0.535 0.272,-0.94l0,-3.352l1.48,0l0,3.296c0,0.8 -0.217,1.412 -0.652,1.836c-0.435,0.424 -1.06,0.636 -1.876,0.636Z" style="fill:#fff;fill-rule:nonzero;"/>
        <path d="M24.864,343.272l0,-4.48l-1.696,0l0,-1.216l4.912,0l0,1.216l-1.696,0l0,4.48l-1.52,0Z" style="fill:#fff;fill-rule:nonzero;"/>
        <path d="M31.632,342.08l1.232,0l0,1.192l-3.952,0l0,-1.192l1.224,0l0,-2.872l-1.144,0.656l0,-1.288l1.76,-1l0.88,0l0,4.504Z" style="fill:#fff;fill-rule:nonzero;"/>
        <path d="M48.84,343.344c-0.581,0 -1.088,-0.119 -1.52,-0.356c-0.432,-0.237 -0.764,-0.577 -0.996,-1.02c-0.232,-0.443 -0.348,-0.96 -0.348,-1.552c0,-0.592 0.117,-1.107 0.352,-1.544c0.235,-0.437 0.567,-0.775 0.996,-1.012c0.429,-0.237 0.935,-0.356 1.516,-0.356c0.581,0 1.087,0.119 1.516,0.356c0.429,0.237 0.759,0.575 0.988,1.012c0.229,0.437 0.344,0.952 0.344,1.544c0,0.592 -0.115,1.109 -0.344,1.552c-0.229,0.443 -0.559,0.783 -0.988,1.02c-0.429,0.237 -0.935,0.356 -1.516,0.356Zm0,-1.144c0.427,0 0.761,-0.152 1.004,-0.456c0.243,-0.304 0.364,-0.747 0.364,-1.328c0,-0.576 -0.121,-1.015 -0.364,-1.316c-0.243,-0.301 -0.577,-0.452 -1.004,-0.452c-0.427,0 -0.76,0.149 -1,0.448c-0.24,0.299 -0.36,0.739 -0.36,1.32c0,0.587 0.12,1.031 0.36,1.332c0.24,0.301 0.573,0.452 1,0.452Z" style="fill:#fff;fill-rule:nonzero;"/>
        <path d="M55.072,343.344c-0.832,0 -1.461,-0.209 -1.888,-0.628c-0.427,-0.419 -0.64,-1.033 -0.64,-1.844l0,-3.296l1.464,0l0,3.352c0,0.411 0.092,0.725 0.276,0.944c0.184,0.219 0.447,0.328 0.788,0.328c0.336,0 0.595,-0.111 0.776,-0.332c0.181,-0.221 0.272,-0.535 0.272,-0.94l0,-3.352l1.48,0l0,3.296c0,0.8 -0.217,1.412 -0.652,1.836c-0.435,0.424 -1.06,0.636 -1.876,0.636Z" style="fill:#fff;fill-rule:nonzero;"/>
        <path d="M59.864,343.272l0,-4.48l-1.696,0l0,-1.216l4.912,0l0,1.216l-1.696,0l0,4.48l-1.52,0Z" style="fill:#fff;fill-rule:nonzero;"/>
        <path d="M67.648,342.08l0,1.192l-4.016,0l0,-1.104l1.856,-1.936c0.347,-0.363 0.52,-0.701 0.52,-1.016c0,-0.368 -0.219,-0.552 -0.656,-0.552c-0.224,0 -0.46,0.044 -0.708,0.132c-0.248,0.088 -0.497,0.215 -0.748,0.38l-0.472,-1.064c0.229,-0.187 0.527,-0.335 0.892,-0.444c0.365,-0.109 0.737,-0.164 1.116,-0.164c0.411,0 0.769,0.065 1.076,0.196c0.307,0.131 0.544,0.317 0.712,0.56c0.168,0.243 0.252,0.527 0.252,0.852c0,0.331 -0.065,0.631 -0.196,0.9c-0.131,0.269 -0.353,0.572 -0.668,0.908l-1.136,1.16l2.176,0Z" style="fill:#fff;fill-rule:nonzero;"/>
        <path d="M83.84,343.344c-0.581,0 -1.088,-0.119 -1.52,-0.356c-0.432,-0.237 -0.764,-0.577 -0.996,-1.02c-0.232,-0.443 -0.348,-0.96 -0.348,-1.552c0,-0.592 0.117,-1.107 0.352,-1.544c0.235,-0.437 0.567,-0.775 0.996,-1.012c0.429,-0.237 0.935,-0.356 1.516,-0.356c0.581,0 1.087,0.119 1.516,0.356c0.429,0.237 0.759,0.575 0.988,1.012c0.229,0.437 0.344,0.952 0.344,1.544c0,0.592 -0.115,1.109 -0.344,1.552c-0.229,0.443 -0.559,0.783 -0.988,1.02c-0.429,0.237 -0.935,0.356 -1.516,0.356Zm0,-1.144c0.427,0 0.761,-0.152 1.004,-0.456c0.243,-0.304 0.364,-0.747 0.364,-1.328c0,-0.576 -0.121,-1.015 -0.364,-1.316c-0.243,-0.301 -0.577,-0.452 -1.004,-0.452c-0.427,0 -0.76,0.149 -1,0.448c-0.24,0.299 -0.36,0.739 -0.36,1.32c0,0.587 0.12,1.031 0.36,1.332c0.24,0.301 0.573,0.452 1,0.452Z" style="fill:#fff;fill-rule:nonzero;"/>
        <path d="M90.072,343.344c-0.832,0 -1.461,-0.209 -1.888,-0.628c-0.427,-0.419 -0.64,-1.033 -0.64,-1.844l0,-3.296l1.464,0l0,3.352c0,0.411 0.092,0.725 0.276,0.944c0.184,0.219 0.447,0.328 0.788,0.328c0.336,0 0.595,-0.111 0.776,-0.332c0.181,-0.221 0.272,-0.535 0.272,-0.94l0,-3.352l1.48,0l0,3.296c0,0.8 -0.217,1.412 -0.652,1.836c-0.435,0.424 -1.06,0.636 -1.876,0.636Z" style="fill:#fff;fill-rule:nonzero;"/>
        <path d="M94.864,343.272l0,-4.48l-1.696,0l0,-1.216l4.912,0l0,1.216l-1.696,0l0,4.48l-1.52,0Z" style="fill:#fff;fill-rule:nonzero;"/>
        <path d="M101.592,340.336c0.331,0.096 0.585,0.264 0.764,0.504c0.179,0.24 0.268,0.533 0.268,0.88c0,0.331 -0.089,0.617 -0.268,0.86c-0.179,0.243 -0.436,0.429 -0.772,0.56c-0.336,0.131 -0.728,0.196 -1.176,0.196c-0.4,0 -0.788,-0.055 -1.164,-0.164c-0.376,-0.109 -0.676,-0.257 -0.9,-0.444l0.472,-1.064c0.496,0.341 1.003,0.512 1.52,0.512c0.32,0 0.547,-0.047 0.68,-0.14c0.133,-0.093 0.2,-0.252 0.2,-0.476c0,-0.213 -0.065,-0.365 -0.196,-0.456c-0.131,-0.091 -0.348,-0.136 -0.652,-0.136l-0.888,0l0,-1.152l0.736,0c0.299,0 0.513,-0.041 0.644,-0.124c0.131,-0.083 0.196,-0.217 0.196,-0.404c0,-0.203 -0.063,-0.357 -0.188,-0.464c-0.125,-0.107 -0.3,-0.16 -0.524,-0.16c-0.229,0 -0.471,0.044 -0.724,0.132c-0.253,0.088 -0.495,0.215 -0.724,0.38l-0.472,-1.064c0.229,-0.181 0.529,-0.328 0.9,-0.44c0.371,-0.112 0.745,-0.168 1.124,-0.168c0.405,0 0.76,0.064 1.064,0.192c0.304,0.128 0.54,0.311 0.708,0.548c0.168,0.237 0.252,0.513 0.252,0.828c0.005,0.299 -0.069,0.557 -0.224,0.776c-0.155,0.219 -0.373,0.381 -0.656,0.488Z" style="fill:#fff;fill-rule:nonzero;"/>
        <path d="M118.84,343.344c-0.581,0 -1.088,-0.119 -1.52,-0.356c-0.432,-0.237 -0.764,-0.577 -0.996,-1.02c-0.232,-0.443 -0.348,-0.96 -0.348,-1.552c0,-0.592 0.117,-1.107 0.352,-1.544c0.235,-0.437 0.567,-0.775 0.996,-1.012c0.429,-0.237 0.935,-0.356 1.516,-0.356c0.581,0 1.087,0.119 1.516,0.356c0.429,0.237 0.759,0.575 0.988,1.012c0.229,0.437 0.344,0.952 0.344,1.544c0,0.592 -0.115,1.109 -0.344,1.552c-0.229,0.443 -0.559,0.783 -0.988,1.02c-0.429,0.237 -0.935,0.356 -1.516,0.356Zm0,-1.144c0.427,0 0.761,-0.152 1.004,-0.456c0.243,-0.304 0.364,-0.747 0.364,-1.328c0,-0.576 -0.121,-1.015 -0.364,-1.316c-0.243,-0.301 -0.577,-0.452 -1.004,-0.452c-0.427,0 -0.76,0.149 -1,0.448c-0.24,0.299 -0.36,0.739 -0.36,1.32c0,0.587 0.12,1.031 0.36,1.332c0.24,0.301 0.573,0.452 1,0.452Z" style="fill:#fff;fill-rule:nonzero;"/>
        <path d="M125.072,343.344c-0.832,0 -1.461,-0.209 -1.888,-0.628c-0.427,-0.419 -0.64,-1.033 -0.64,-1.844l0,-3.296l1.464,0l0,3.352c0,0.411 0.092,0.725 0.276,0.944c0.184,0.219 0.447,0.328 0.788,0.328c0.336,0 0.595,-0.111 0.776,-0.332c0.181,-0.221 0.272,-0.535 0.272,-0.94l0,-3.352l1.48,0l0,3.296c0,0.8 -0.217,1.412 -0.652,1.836c-0.435,0.424 -1.06,0.636 -1.876,0.636Z" style="fill:#fff;fill-rule:nonzero;"/>
        <path d="M129.864,343.272l0,-4.48l-1.696,0l0,-1.216l4.912,0l0,1.216l-1.696,0l0,4.48l-1.52,0Z" style="fill:#fff;fill-rule:nonzero;"/>
        <path d="M137.88,341.168l0,1.144l-0.736,0l0,0.96l-1.472,0l0,-0.96l-2.28,0l0,-1.104l2.552,-3.632l1.2,0l0,3.592l0.736,0Zm-3.144,0l0.936,0l0,-1.344l-0.936,1.344Z" style="fill:#fff;fill-rule:nonzero;"/>
        <rect x="50.128" y="297.576" width="1.504" height="5.696" style="fill:#fff;fill-rule:nonzero;"/>
        <path d="M56.336,297.576l1.416,0l0,5.696l-1.112,0l-2.584,-3.232l0,3.232l-1.4,0l0,-5.696l1.096,0l2.584,3.216l0,-3.216Z" style="fill:#fff;fill-rule:nonzero;"/>
        <path d="M62.744,302.08l0,1.192l-4.016,0l0,-1.104l1.856,-1.936c0.347,-0.363 0.52,-0.701 0.52,-1.016c0,-0.368 -0.219,-0.552 -0.656,-0.552c-0.224,0 -0.46,0.044 -0.708,0.132c-0.248,0.088 -0.497,0.215 -0.748,0.38l-0.472,-1.064c0.229,-0.187 0.527,-0.335 0.892,-0.444c0.365,-0.109 0.737,-0.164 1.116,-0.164c0.411,0 0.769,0.065 1.076,0.196c0.307,0.131 0.544,0.317 0.712,0.56c0.168,0.243 0.252,0.527 0.252,0.852c0,0.331 -0.065,0.631 -0.196,0.9c-0.131,0.269 -0.353,0.572 -0.668,0.908l-1.136,1.16l2.176,0Z" style="fill:#fff;fill-rule:nonzero;"/>
        <rect x="85.128" y="297.576" width="1.504" height="5.696" style="fill:#fff;fill-rule:nonzero;"/>
        <path d="M91.336,297.576l1.416,0l0,5.696l-1.112,0l-2.584,-3.232l0,3.232l-1.4,0l0,-5.696l1.096,0l2.584,3.216l0,-3.216Z" style="fill:#fff;fill-rule:nonzero;"/>
        <path d="M96.688,300.336c0.331,0.096 0.585,0.264 0.764,0.504c0.179,0.24 0.268,0.533 0.268,0.88c0,0.331 -0.089,0.617 -0.268,0.86c-0.179,0.243 -0.436,0.429 -0.772,0.56c-0.336,0.131 -0.728,0.196 -1.176,0.196c-0.4,0 -0.788,-0.055 -1.164,-0.164c-0.376,-0.109 -0.676,-0.257 -0.9,-0.444l0.472,-1.064c0.496,0.341 1.003,0.512 1.52,0.512c0.32,0 0.547,-0.047 0.68,-0.14c0.133,-0.093 0.2,-0.252 0.2,-0.476c0,-0.213 -0.065,-0.365 -0.196,-0.456c-0.131,-0.091 -0.348,-0.136 -0.652,-0.136l-0.888,0l0,-1.152l0.736,0c0.299,0 0.513,-0.041 0.644,-0.124c0.131,-0.083 0.196,-0.217 0.196,-0.404c0,-0.203 -0.063,-0.357 -0.188,-0.464c-0.125,-0.107 -0.3,-0.16 -0.524,-0.16c-0.229,0 -0.471,0.044 -0.724,0.132c-0.253,0.088 -0.495,0.215 -0.724,0.38l-0.472,-1.064c0.229,-0.181 0.529,-0.328 0.9,-0.44c0.371,-0.112 0.745,-0.168 1.124,-0.168c0.405,0 0.76,0.064 1.064,0.192c0.304,0.128 0.54,0.311 0.708,0.548c0.168,0.237 0.252,0.513 0.252,0.828c0.005,0.299 -0.069,0.557 -0.224,0.776c-0.155,0.219 -0.373,0.381 -0.656,0.488Z" style="fill:#fff;fill-rule:nonzero;"/>
        <rect x="120.128" y="297.576" width="1.504" height="5.696" style="fill:#fff;fill-rule:nonzero;"/>
        <path d="M126.336,297.576l1.416,0l0,5.696l-1.112,0l-2.584,-3.232l0,3.232l-1.4,0l0,-5.696l1.096,0l2.584,3.216l0,-3.216Z" style="fill:#fff;fill-rule:nonzero;"/>
        <path d="M132.976,301.168l0,1.144l-0.736,0l0,0.96l-1.472,0l0,-0.96l-2.28,0l0,-1.104l2.552,-3.632l1.2,0l0,3.592l0.736,0Zm-3.144,0l0.936,0l0,-1.344l-0.936,1.344Z" style="fill:#fff;fill-rule:nonzero;"/>
        <path d="M74.576,42.934c3.344,0 10.031,-9.934 10.031,-9.934l24.533,0c0,0 3,-0.006 3,4.328c0,3.333 -3,3.672 -3,3.672l-24.533,0c0,0 -6.687,9.934 -10.031,9.934c-3.344,0 -10.031,-9.934 -10.031,-9.934l-24.533,0c0,0 -3,-0.339 -3,-3.672c0,-4.334 3,-4.328 3,-4.328l24.533,0c0,0 6.687,9.934 10.031,9.934Z" style="fill:#101010;stroke:#ccc;stroke-width:0.95px;"/>
        <path d="M32.868,19.049l4.068,0c0.976,0 1.732,0.234 2.268,0.702c0.536,0.468 0.804,1.102 0.804,1.902c0,0.792 -0.272,1.424 -0.816,1.896c-0.544,0.472 -1.296,0.708 -2.256,0.708l-1.812,0l0,3.336l-2.256,0l0,-8.544Zm3.768,3.528c0.848,0 1.272,-0.3 1.272,-0.9c0,-0.304 -0.102,-0.534 -0.306,-0.69c-0.204,-0.156 -0.526,-0.234 -0.966,-0.234l-1.512,0l0,1.824l1.512,0Z" style="fill:#fff;fill-rule:nonzero;"/>
        <path d="M41.088,27.593l0,-8.544l2.256,0l0,6.72l3.612,0l0,1.824l-5.868,0Z" style="fill:#fff;fill-rule:nonzero;"/>
        <path d="M54.612,27.593l-0.756,-1.764l-3.792,0l-0.756,1.764l-2.256,0l3.996,-8.544l1.776,0l4.008,8.544l-2.22,0Zm-3.816,-3.456l2.328,0l-1.164,-2.7l-1.164,2.7Z" style="fill:#fff;fill-rule:nonzero;"/>
        <path d="M64.188,19.049l-3.612,5.28l0,3.264l-2.268,0l0,-3.276l-3.588,-5.268l2.544,0l2.16,3.408l2.196,-3.408l2.568,0Z" style="fill:#fff;fill-rule:nonzero;"/>
        <path d="M71.268,22.769l0,4.284c-0.456,0.208 -0.966,0.368 -1.53,0.48c-0.564,0.112 -1.142,0.168 -1.734,0.168c-0.928,0 -1.734,-0.176 -2.418,-0.528c-0.684,-0.352 -1.21,-0.858 -1.578,-1.518c-0.368,-0.66 -0.552,-1.442 -0.552,-2.346c0,-0.88 0.184,-1.65 0.552,-2.31c0.368,-0.66 0.888,-1.168 1.56,-1.524c0.672,-0.356 1.456,-0.534 2.352,-0.534c0.616,0 1.198,0.08 1.746,0.24c0.548,0.16 0.994,0.38 1.338,0.66l-0.708,1.596c-0.392,-0.256 -0.77,-0.442 -1.134,-0.558c-0.364,-0.116 -0.754,-0.174 -1.17,-0.174c-0.76,0 -1.326,0.214 -1.698,0.642c-0.372,0.428 -0.558,1.082 -0.558,1.962c0,0.912 0.194,1.588 0.582,2.028c0.388,0.44 0.986,0.66 1.794,0.66c0.376,0 0.752,-0.04 1.128,-0.12l0,-1.584l-1.488,0l0,-1.524l3.516,0Z" style="fill:#fff;fill-rule:nonzero;"/>
        <path d="M80.124,27.593l-2.388,0l-1.104,-2.844c-0.128,-0.32 -0.428,-0.48 -0.9,-0.48l-0.816,0l0,3.324l-2.22,0l0,-8.544l3.972,0c1.032,0 1.808,0.222 2.328,0.666c0.52,0.444 0.78,1.078 0.78,1.902c0,0.576 -0.154,1.074 -0.462,1.494c-0.308,0.42 -0.742,0.718 -1.302,0.894c0.24,0.048 0.456,0.16 0.648,0.336c0.192,0.176 0.344,0.412 0.456,0.708l1.008,2.544Zm-3.816,-5.004c0.48,0 0.828,-0.074 1.044,-0.222c0.216,-0.148 0.324,-0.378 0.324,-0.69c0,-0.328 -0.106,-0.564 -0.318,-0.708c-0.212,-0.144 -0.562,-0.216 -1.05,-0.216l-1.416,0l0,1.836l1.416,0Z" style="fill:#fff;fill-rule:nonzero;"/>
        <path d="M85.272,27.701c-0.872,0 -1.632,-0.178 -2.28,-0.534c-0.648,-0.356 -1.146,-0.866 -1.494,-1.53c-0.348,-0.664 -0.522,-1.44 -0.522,-2.328c0,-0.888 0.176,-1.66 0.528,-2.316c0.352,-0.656 0.85,-1.162 1.494,-1.518c0.644,-0.356 1.402,-0.534 2.274,-0.534c0.872,0 1.63,0.178 2.274,0.534c0.644,0.356 1.138,0.862 1.482,1.518c0.344,0.656 0.516,1.428 0.516,2.316c0,0.888 -0.172,1.664 -0.516,2.328c-0.344,0.664 -0.838,1.174 -1.482,1.53c-0.644,0.356 -1.402,0.534 -2.274,0.534Zm0,-1.716c0.64,0 1.142,-0.228 1.506,-0.684c0.364,-0.456 0.546,-1.12 0.546,-1.992c0,-0.864 -0.182,-1.522 -0.546,-1.974c-0.364,-0.452 -0.866,-0.678 -1.506,-0.678c-0.64,0 -1.14,0.224 -1.5,0.672c-0.36,0.448 -0.54,1.108 -0.54,1.98c0,0.88 0.18,1.546 0.54,1.998c0.36,0.452 0.86,0.678 1.5,0.678Z" style="fill:#fff;fill-rule:nonzero;"/>
        <path d="M94.62,27.701c-1.248,0 -2.192,-0.314 -2.832,-0.942c-0.64,-0.628 -0.96,-1.55 -0.96,-2.766l0,-4.944l2.196,0l0,5.028c0,0.616 0.138,1.088 0.414,1.416c0.276,0.328 0.67,0.492 1.182,0.492c0.504,0 0.892,-0.166 1.164,-0.498c0.272,-0.332 0.408,-0.802 0.408,-1.41l0,-5.028l2.22,0l0,4.944c0,1.2 -0.326,2.118 -0.978,2.754c-0.652,0.636 -1.59,0.954 -2.814,0.954Z" style="fill:#fff;fill-rule:nonzero;"/>
        <path d="M105.408,19.049l2.124,0l0,8.544l-1.668,0l-3.876,-4.848l0,4.848l-2.1,0l0,-8.544l1.644,0l3.876,4.824l0,-4.824Z" style="fill:#fff;fill-rule:nonzero;"/>
        <path d="M109.08,19.049l3.492,0c0.944,0 1.758,0.17 2.442,0.51c0.684,0.34 1.208,0.83 1.572,1.47c0.364,0.64 0.546,1.4 0.546,2.28c0,0.888 -0.18,1.654 -0.54,2.298c-0.36,0.644 -0.882,1.136 -1.566,1.476c-0.684,0.34 -1.502,0.51 -2.454,0.51l-3.492,0l0,-8.544Zm3.336,6.744c0.832,0 1.454,-0.206 1.866,-0.618c0.412,-0.412 0.618,-1.034 0.618,-1.866c0,-1.64 -0.828,-2.46 -2.484,-2.46l-1.08,0l0,4.944l1.08,0Z" style="fill:#fff;fill-rule:nonzero;"/>
        <path d="M21.478,202l0,-5" style="fill:none;stroke:#ccc;stroke-width:0.95px;"/>
        <path d="M56.478,202l0,-5" style="fill:none;stroke:#ccc;stroke-width:0.95px;"/>
        <path d="M91.478,202l0,-5" style="fill:none;stroke:#ccc;stroke-width:0.95px;"/>
        <path d="M126.478,202l0,-5" style="fill:none;stroke:#ccc;stroke-width:0.95px;"/>
    </g>
</svg>
